<svg width="55" height="52" viewBox="0 0 55 52" fill="none" xmlns="http://www.w3.org/2000/svg">
<path d="M32.6829 33.45H21.2246" stroke="white" stroke-width="1.5" stroke-miterlimit="10" stroke-linecap="round" stroke-linejoin="round"/>
<path d="M26.9541 28.1624V38.9958" stroke="white" stroke-width="1.5" stroke-miterlimit="10" stroke-linecap="round" stroke-linejoin="round"/>
<path d="M29.0125 5.45597L28.9438 5.60764L22.2979 20.1893H15.7667C14.2084 20.1893 12.7188 20.4926 11.3667 21.0343L15.3771 11.9776L15.4688 11.761L15.6292 11.4143C15.675 11.2843 15.7209 11.1543 15.7896 11.046C18.7917 4.48097 22.1834 2.98597 29.0125 5.45597Z" stroke="white" stroke-width="1.5" stroke-linecap="round" stroke-linejoin="round"/>
<path d="M41.3645 20.6226C40.3333 20.3193 39.2333 20.1893 38.1333 20.1893H22.2979L28.9437 5.6076L29.0124 5.45593C29.3562 5.56427 29.677 5.71593 30.0208 5.84593L35.0854 7.86093C37.9041 8.96593 39.8749 10.1143 41.0666 11.5009C41.2958 11.7609 41.4791 11.9993 41.6395 12.2809C41.8458 12.5843 42.0062 12.8876 42.0979 13.2126C42.1895 13.4076 42.2583 13.6026 42.3041 13.7759C42.9229 15.5959 42.5562 17.8276 41.3645 20.6226Z" stroke="white" stroke-width="1.5" stroke-linecap="round" stroke-linejoin="round"/>
<path d="M49.3208 30.7631V34.9881C49.3208 35.4215 49.2979 35.8548 49.2749 36.2881C48.8395 43.8498 44.3708 47.6631 35.8916 47.6631H18.0166C17.4666 47.6631 16.9166 47.6198 16.3895 47.5548C9.10202 47.0998 5.20618 43.4165 4.72493 36.5265C4.65618 36.0281 4.61035 35.5081 4.61035 34.9881V30.7631C4.61035 26.4081 7.40619 22.6598 11.3937 21.0348C12.7687 20.4931 14.2354 20.1898 15.7937 20.1898H38.1604C39.2833 20.1898 40.3833 20.3415 41.3916 20.6231C45.952 21.9448 49.3208 25.9748 49.3208 30.7631Z" stroke="white" stroke-width="1.5" stroke-linecap="round" stroke-linejoin="round"/>
<path d="M15.3772 11.9776L11.3668 21.0343C7.37933 22.6593 4.5835 26.4076 4.5835 30.7626V24.4143C4.5835 18.261 9.21266 13.126 15.3772 11.9776Z" stroke="white" stroke-width="1.5" stroke-linecap="round" stroke-linejoin="round"/>
<path d="M49.3134 24.4132V30.7616C49.3134 25.9949 45.9676 21.9432 41.3843 20.6432C42.5759 17.8266 42.9197 15.6166 42.3468 13.7749C42.3009 13.5799 42.2322 13.3849 42.1405 13.2116C46.403 15.2916 49.3134 19.5599 49.3134 24.4132Z" stroke="white" stroke-width="1.5" stroke-linecap="round" stroke-linejoin="round"/>
</svg>
